# xmcd
#
# Track frame offsets: 
#        150
#        13817
#        25765
#        36462
#        48925
#        60727
#        73685
#        84205
#        96950
#        109797
#
# Disc length: 1645 seconds
#
# Revision: 2
# Processed by: cddbd v1.5.2PL0 Copyright (c) Steve Scherf et al.
# Submitted via: ExactAudioCopyFreeDBPlugin 1.0
#
DISCID=7e066b0a
DTITLE=Jim Reeves - Patsy Cline - Greatest Hits - Jim Reeves and Patsy Cl
DTITLE=ine
DYEAR=1981
DGENRE=Country
TTITLE0=Have You Ever Been Lonely (Have You Ever Been Blue)?
TTITLE1=Welcome To My World
TTITLE2=He'll Have To Go
TTITLE3=Crazy
TTITLE4=Sweet Dreams (Of You)
TTITLE5=Four Walls
TTITLE6=Am I Losing You?
TTITLE7=Golden Memories And Silver Tears
TTITLE8=I Fall To Pieces
TTITLE9=She's Got You
EXTD=
EXTT0=
EXTT1=
EXTT2=
EXTT3=
EXTT4=
EXTT5=
EXTT6=
EXTT7=
EXTT8=
EXTT9=
PLAYORDER=
